<?xml version="1.0" standalone="no"?>
<!DOCTYPE svg PUBLIC "-//W3C//DTD SVG 20010904//EN"
 "http://www.w3.org/TR/2001/REC-SVG-20010904/DTD/svg10.dtd">
<svg version="1.0" xmlns="http://www.w3.org/2000/svg"
 width="322.000000pt" height="418.000000pt" viewBox="0 0 322.000000 418.000000"
 preserveAspectRatio="xMidYMid meet">

<g transform="translate(0.000000,418.000000) scale(0.100000,-0.100000)"
fill="#00ff9f" stroke="none">
<path d="M1662 3825 c-89 -51 -174 -100 -187 -109 l-25 -17 2 -216 3 -216 189
-108 190 -109 35 21 c20 12 105 60 189 106 l152 86 0 221 0 222 -177 101 c-98
56 -185 104 -193 107 -8 2 -88 -37 -178 -89z m346 -114 l112 -63 0 -163 0
-163 -137 -77 c-76 -43 -142 -78 -148 -78 -5 0 -72 35 -148 78 l-137 77 2 166
3 167 139 77 140 78 30 -18 c17 -10 82 -47 144 -81z"/>
<path d="M388 3103 l-188 -107 0 -217 0 -218 28 -19 c15 -10 100 -60 190 -111
l163 -93 182 102 c100 57 188 107 195 113 9 7 12 64 12 223 l0 213 -27 19
c-30 21 -357 202 -364 202 -2 -1 -88 -49 -191 -107z m337 -81 l140 -78 3 -166
2 -166 -143 -81 -144 -81 -146 82 -147 82 0 162 0 163 143 79 c78 44 144 80
147 81 3 0 68 -35 145 -77z"/>
<path d="M1245 3114 c-93 -52 -180 -102 -192 -110 -23 -14 -23 -18 -23 -229
l0 -214 57 -34 c134 -80 314 -177 330 -177 10 0 99 46 198 103 l180 102 3 221
2 221 -186 104 c-103 57 -190 105 -193 106 -3 2 -82 -40 -176 -93z m403 -142
l52 -26 0 -168 0 -167 -42 -24 c-24 -13 -87 -50 -142 -81 l-98 -57 -142 80
-141 79 0 167 0 168 140 77 140 78 90 -49 c50 -28 114 -62 143 -77z"/>
<path d="M2170 3166 c-41 -23 -126 -71 -187 -106 l-113 -63 0 -221 0 -221 185
-104 c123 -68 192 -101 205 -98 11 3 99 49 195 104 l175 98 -2 223 -3 223
-185 105 c-102 57 -187 104 -190 104 -3 0 -39 -20 -80 -44z m225 -145 l140
-79 3 -164 2 -164 -145 -82 -146 -81 -144 82 -145 82 0 162 0 162 143 79 c78
44 144 80 147 81 3 0 68 -35 145 -78z"/>
<path d="M815 2399 c-99 -55 -183 -103 -186 -107 -4 -4 -9 -103 -12 -219 -4
-187 -2 -214 12 -226 9 -8 95 -59 193 -114 l176 -101 179 100 c98 55 186 107
196 115 15 14 17 39 17 224 l0 208 -27 19 c-37 26 -352 202 -361 202 -4 0 -88
-45 -187 -101z m330 -87 l140 -78 2 -164 3 -165 -138 -77 c-76 -43 -145 -78
-153 -78 -8 0 -75 35 -149 78 l-135 78 0 164 0 165 140 78 c77 42 142 77 145
77 3 0 68 -36 145 -78z"/>
<path d="M1640 2396 l-185 -104 0 -222 0 -223 180 -103 c99 -57 186 -104 194
-104 8 0 99 48 203 106 l188 106 0 212 c0 190 -2 215 -17 228 -22 19 -357 208
-369 208 -5 0 -92 -47 -194 -104z m344 -86 l136 -75 0 -165 0 -165 -144 -81
-143 -81 -146 81 -147 81 3 164 2 164 140 79 c77 43 145 77 152 76 6 -2 72
-37 147 -78z"/>
<path d="M2468 2394 l-188 -106 0 -213 c0 -189 2 -214 18 -227 18 -16 298
-177 343 -198 25 -11 40 -5 200 85 96 54 182 105 192 113 16 14 17 35 15 230
l-3 215 -185 103 c-102 57 -189 104 -195 104 -5 0 -94 -48 -197 -106z m344
-81 l138 -77 -2 -165 -3 -165 -70 -41 c-38 -23 -102 -59 -141 -80 l-71 -39
-141 80 -142 79 0 166 0 165 138 77 c75 42 141 77 147 77 5 0 71 -35 147 -77z"/>
<path d="M1235 1694 c-93 -53 -178 -103 -188 -112 -16 -14 -18 -33 -16 -171 1
-86 5 -182 8 -215 l6 -59 180 -103 c99 -57 184 -104 189 -104 4 0 93 48 197
107 l189 107 -2 220 -3 221 -180 102 c-99 56 -187 102 -195 102 -8 0 -91 -43
-185 -95z m330 -90 l135 -76 0 -167 0 -166 -138 -77 c-76 -43 -143 -78 -148
-78 -5 0 -70 35 -144 78 l-135 78 -3 164 -2 165 137 77 c76 42 143 77 150 77
7 1 73 -33 148 -75z"/>
<path d="M2075 1699 c-88 -50 -170 -97 -182 -105 -23 -14 -23 -17 -23 -232 0
-214 0 -217 23 -231 106 -68 355 -200 367 -196 8 3 95 51 193 107 l177 101 -2
221 -3 221 -180 102 c-99 57 -187 103 -195 103 -8 -1 -87 -41 -175 -91z m325
-96 l140 -78 -2 -164 -3 -164 -140 -78 c-78 -44 -147 -77 -155 -74 -8 3 -74
39 -146 80 l-131 74 5 163 c2 90 7 166 11 170 11 12 256 147 268 147 7 1 76
-34 153 -76z"/>
<path d="M1635 977 l-180 -102 -2 -210 c-2 -116 0 -215 5 -221 9 -16 359 -214
375 -214 6 1 93 47 192 103 l180 102 3 221 2 221 -183 101 c-100 56 -189 102
-197 102 -8 0 -96 -47 -195 -103z m347 -83 l138 -76 -2 -162 -3 -161 -135 -77
c-74 -43 -141 -78 -148 -78 -7 0 -73 35 -147 77 l-135 78 2 164 3 164 130 73
c72 40 136 73 144 74 8 0 77 -34 153 -76z"/>
</g>
</svg>
